<svg xmlns="http://www.w3.org/2000/svg" width="1600" height="900" viewBox="0 0 1600 900" role="img" aria-labelledby="title desc">
  <title id="title">Youth STEM story slide 2</title>
  <desc id="desc">A science evidence cycle from noticing to testing to redesigning.</desc>
  <rect width="1600" height="900" fill="#f8fbff" />
  <text x="90" y="90" font-family="Arial" font-size="52" font-weight="700" fill="#102033">Science Is An Evidence Cycle</text>
  <text x="90" y="140" font-family="Arial" font-size="28" fill="#334155">Microplastics work can connect noticing, measuring, redesigning, and advocacy.</text>
  <circle cx="800" cy="450" r="175" fill="#e0f2fe" stroke="#0369a1" stroke-width="6" />
  <circle cx="720" cy="410" r="16" fill="#ef4444" />
  <circle cx="850" cy="390" r="13" fill="#f97316" />
  <circle cx="905" cy="500" r="18" fill="#8b5cf6" />
  <circle cx="750" cy="530" r="11" fill="#22c55e" />
  <path d="M675 450 C770 350, 920 350, 985 450" stroke="#111827" stroke-width="16" fill="none" opacity=".18" />
  <path d="M985 450 C900 570, 740 575, 675 450" stroke="#111827" stroke-width="16" fill="none" opacity=".18" />
  <rect x="145" y="310" width="260" height="110" rx="18" fill="#ffffff" stroke="#1f2937" stroke-width="4" />
  <text x="275" y="375" text-anchor="middle" font-family="Arial" font-size="30" font-weight="700" fill="#102033">Notice</text>
  <rect x="445" y="650" width="260" height="110" rx="18" fill="#ffffff" stroke="#1f2937" stroke-width="4" />
  <text x="575" y="715" text-anchor="middle" font-family="Arial" font-size="30" font-weight="700" fill="#102033">Test</text>
  <rect x="895" y="650" width="260" height="110" rx="18" fill="#ffffff" stroke="#1f2937" stroke-width="4" />
  <text x="1025" y="715" text-anchor="middle" font-family="Arial" font-size="30" font-weight="700" fill="#102033">Redesign</text>
  <rect x="1195" y="310" width="260" height="110" rx="18" fill="#ffffff" stroke="#1f2937" stroke-width="4" />
  <text x="1325" y="375" text-anchor="middle" font-family="Arial" font-size="30" font-weight="700" fill="#102033">Advocate</text>
  <path d="M405 365 C520 360, 590 390, 650 430" stroke="#475569" stroke-width="5" fill="none" marker-end="url(#arrow)" />
  <path d="M720 590 C665 625, 625 640, 590 650" stroke="#475569" stroke-width="5" fill="none" marker-end="url(#arrow)" />
  <path d="M1010 650 C970 625, 925 600, 890 570" stroke="#475569" stroke-width="5" fill="none" marker-end="url(#arrow)" />
  <path d="M970 430 C1035 385, 1120 365, 1195 365" stroke="#475569" stroke-width="5" fill="none" marker-end="url(#arrow)" />
  <defs><marker id="arrow" markerWidth="12" markerHeight="12" refX="10" refY="4" orient="auto" markerUnits="strokeWidth"><path d="M0,0 L0,8 L12,4 z" fill="#475569"/></marker></defs>
</svg>
